PathFileType	4	(X/Y/Z)	/Users/niels/Desktop/University/Third Semester/Perception and Action/Exam/Gymnastics Motion Tracking/Code for Gym Tracking/Analyzed Data/Webcam_Backflip/id4_2_baseline_Sports2D/id4_2_baseline_Sports2D_px_person00.trc
DataRate	CameraRate	NumFrames	NumMarkers	Units	OrigDataRate	OrigDataStartFrame	OrigNumFrames
29.81132075471698	29.81132075471698	7	22	m	29.81132075471698	59	159
Frame#	Time	Hip			RHip			RKnee			RAnkle			RBigToe			RSmallToe			RHeel			LHip			LKnee			LAnkle			LBigToe			LSmallToe			LHeel			Neck			Head			Nose			RShoulder			RElbow			RWrist			LShoulder			LElbow			LWrist		
		X1	Y1	Z1	X2	Y2	Z2	X3	Y3	Z3	X4	Y4	Z4	X5	Y5	Z5	X6	Y6	Z6	X7	Y7	Z7	X8	Y8	Z8	X9	Y9	Z9	X10	Y10	Z10	X11	Y11	Z11	X12	Y12	Z12	X13	Y13	Z13	X14	Y14	Z14	X15	Y15	Z15	X16	Y16	Z16	X17	Y17	Z17	X18	Y18	Z18	X19	Y19	Z19	X20	Y20	Z20	X21	Y21	Z21	X22	Y22	Z22
59	1.9791139240506328	0.9519467875604719	-0.6139780479515898	0.0	0.9528451338928912	-0.6144927809231995	0.0	0.9687580488608043	-0.7174008189689228	0.0	0.9487066767521307	-0.8176668046539464	0.0	0.9632384677369025	-0.8344368586014288	0.0	0.9562997488999346	-0.8367293560393346	0.0	0.9415524841936588	-0.8310567435944566	0.0	0.9498888947971754	-0.6125129408156877	0.0	0.9656004951309418	-0.7179802993881741	0.0	0.9480273463170105	-0.8172941963577575	0.0	0.9731201776283691	-0.8391942489346057	0.0	0.9684580812254107	-0.8392836434109835	0.0	0.9397090290410466	-0.8290897608867422	0.0	0.943689659299886	-0.47014311022971944	0.0	0.943668758211321	-0.3913864404002066	0.0	0.9578969970939631	-0.4297576625885456	0.0	0.9377761701811838	-0.4715767948207096	0.0	0.9521258497847448	-0.3918827902536545	0.0	0.9548495211586543	-0.3228261694167515	0.0	0.9399972471127535	-0.4714732583401602	0.0	0.9620627763075799	-0.3986442435980261	0.0	0.9643741180447468	-0.3343157506353472	0.0
60	2.0126582278481013	0.9500994954326688	-0.6193710366888994	0.0	0.9504173832370671	-0.619782324721356	0.0	0.9697517076685576	-0.7217208747283544	0.0	0.9485389594506088	-0.8219375133889189	0.0	0.9643565524495197	-0.8388340959274573	0.0	0.9577044125332101	-0.8411923546479504	0.0	0.9411898997570319	-0.8351592945387438	0.0	0.9481043794224332	-0.617664373264232	0.0	0.9666562861194052	-0.7223604032207033	0.0	0.9480629515867651	-0.8215414199692388	0.0	0.973651040498803	-0.8432010631894857	0.0	0.9686008950990136	-0.8435854454800328	0.0	0.939097989771807	-0.8332182088594541	0.0	0.9420020493343313	-0.475585755284731	0.0	0.9434670165793212	-0.3974417927253697	0.0	0.9571761545224707	-0.4354117675154783	0.0	0.9360863369542933	-0.4774583197526415	0.0	0.9525199355387742	-0.39932814373848924	0.0	0.9560643458316254	-0.3302962675060361	0.0	0.9384982714634419	-0.4768148369679259	0.0	0.9610705451698731	-0.4053382074234773	0.0	0.9642185624185141	-0.341531455983496	0.0
61	2.0462025316455694	0.9476054317750588	-0.6201398260412556	0.0	0.947423563619296	-0.6201671870022052	0.0	0.9712048520629178	-0.7208790826392873	0.0	0.9486506179724795	-0.82158392772349	0.0	0.9658641639657339	-0.8388916829701878	0.0	0.959157101258781	-0.8413487879937191	0.0	0.9408788348234293	-0.8348453905321875	0.0	0.9457246690252405	-0.6178577721063613	0.0	0.9681248059963089	-0.7215882852333811	0.0	0.9483605454200825	-0.8206382879514886	0.0	0.9749532489801344	-0.8427422813628861	0.0	0.9695520154032317	-0.8429822080234872	0.0	0.9386685594828406	-0.8322496348549475	0.0	0.9400958560890375	-0.4757528238179507	0.0	0.943789018998687	-0.39833734749169236	0.0	0.9565752009857992	-0.43590762491224383	0.0	0.9344108562807987	-0.47799469469874806	0.0	0.953947920798874	-0.40212475673779613	0.0	0.9597748720672785	-0.3335821993872082	0.0	0.9366999032948553	-0.4768382858176839	0.0	0.9605427867030325	-0.4072440080414129	0.0	0.9658737487076611	-0.3443453859334142	0.0
62	2.079746835443038	0.9445711644025052	-0.6163316514905917	0.0	0.9439290986959014	-0.6157358030205815	0.0	0.9727842862229771	-0.7149571022621605	0.0	0.9489049512535714	-0.816398321487022	0.0	0.9673414774096202	-0.8343238238014867	0.0	0.9602079877578271	-0.8368616911819823	0.0	0.9405261659169474	-0.8299302025935552	0.0	0.942789562063926	-0.6132080888376144	0.0	0.9695564778318392	-0.7156760885474595	0.0	0.9486424703407743	-0.8145460668325852	0.0	0.9766367654708867	-0.8377414713796952	0.0	0.9710087644203578	-0.8374075774879552	0.0	0.9382255247334681	-0.8262394285374701	0.0	0.9380368096537862	-0.4708142056681588	0.0	0.94451210155047	-0.39413704805582184	0.0	0.9561019596119612	-0.4313573363739566	0.0	0.9328195113761035	-0.4732150716960426	0.0	0.9562133275646479	-0.40001132170595	0.0	0.9652376856858889	-0.33242673046662685	0.0	0.9347457976328396	-0.4717015070169292	0.0	0.9606654869273756	-0.4042606514358892	0.0	0.9690128391720475	-0.34264930250025155	0.0
63	2.113291139240506	0.9411261646287088	-0.6083651042403416	0.0	0.9399913010816038	-0.6070046052416708	0.0	0.9742450947935019	-0.7046460624443845	0.0	0.9491661313155115	-0.8068383328703508	0.0	0.968664206191753	-0.8254741200422803	0.0	0.9608852667948816	-0.8280569102616264	0.0	0.9400307822569794	-0.820842101727749	0.0	0.9394307415861614	-0.6043235090265993	0.0	0.9706210190569248	-0.705326735096522	0.0	0.948514788239388	-0.8040488813292795	0.0	0.978223487800825	-0.8287727003096409	0.0	0.9724509550721236	-0.8274817349534274	0.0	0.9374074952640626	-0.8159883794550353	0.0	0.9359085243047569	-0.46135764669902113	0.0	0.9455816899787108	-0.3854619543090817	0.0	0.9558056205250801	-0.42233569714817454	0.0	0.9313314043273225	-0.46371450513535234	0.0	0.9589969296728277	-0.3933868308910709	0.0	0.9715906451144035	-0.3272046987005654	0.0	0.9328693237668326	-0.462075874618612	0.0	0.9617262821326784	-0.39687286669063276	0.0	0.973489320050091	-0.33681557711427446	0.0
64	2.1468354430379746	0.937380877793175	-0.5969613805847738	0.0	0.9357061188020084	-0.594849155891672	0.0	0.9755142247826025	-0.6911473133892057	0.0	0.9493607308547352	-0.7939732217364247	0.0	0.969967664760097	-0.8133021599619527	0.0	0.9615699266151116	-0.8159207893645875	0.0	0.9393187819219692	-0.80857747231563	0.0	0.9358092963480892	-0.5921820022673889	0.0	0.9711809345852837	-0.6918318517135289	0.0	0.9475050643695727	-0.790521545002035	0.0	0.9791564219002099	-0.8168795066273223	0.0	0.9732082196177512	-0.8143880854180167	0.0	0.9356970286331249	-0.8028465254449564	0.0	0.9338216880723067	-0.4483515228165442	0.0	0.9470418863792436	-0.37341289074655726	0.0	0.95577423269514	-0.4098229343341444	0.0	0.9299450761214285	-0.45065167813039997	0.0	0.9619593382385451	-0.38332017254392886	0.0	0.9781445168835223	-0.3188468055431665	0.0	0.931243301325471	-0.4490756694120295	0.0	0.9638014873762211	-0.3861056603876135	0.0	0.9790720705123241	-0.32766491528562686	0.0
65	2.180379746835443	0.9334432881704484	-0.5831362569837999	0.0	0.9312897604633618	-0.5804923312738743	0.0	0.9765706136922144	-0.6760168551695737	0.0	0.949488541129463	-0.7793376697556226	0.0	0.9714594480074082	-0.7993111005895415	0.0	0.9626360159183927	-0.8020032212520168	0.0	0.9383842019302344	-0.7945722933112218	0.0	0.9320892285155101	-0.5780284970145659	0.0	0.9711776835536263	-0.6768354123383917	0.0	0.9451749134022476	-0.7755859147577098	0.0	0.9788527225123294	-0.8034009128279669	0.0	0.9726161319165615	-0.799688349884251	0.0	0.9325908396824623	-0.7883973090796982	0.0	0.9318904288812535	-0.4331398017025352	0.0	0.9490281327527765	-0.3594135648564627	0.0	0.9561445565808262	-0.3952307071648461	0.0	0.9286838999003231	-0.4356174983303066	0.0	0.9649482380598228	-0.37129869244749625	0.0	0.9845943490827014	-0.30849510980758776	0.0	0.9298376520032837	-0.4341701260832402	0.0	0.9665216395085167	-0.37338036391816815	0.0	0.9852167687496333	-0.31634690696576284	0.0
